@startuml

class Client
abstract class Component
class Leaf
class Composite

Client --> Component : Uses
Component <|-- Leaf
Component <|-- Composite
Composite "1" o--> "*" Component

class Component {
{abstract} method1()
{abstract} method2()
add()
remove()
getChild()
}

class Leaf {
method1()
method2()
}

class Composite {
method1()
method2()
add()
remove()
getChild()
}
@enduml